<?xml version="1.0" encoding="UTF-8"?>
<svg xmlns="http://www.w3.org/2000/svg" viewBox="0 0 2000 2800" role="img" aria-labelledby="title desc">
  <title id="title">DNA Technical Blueprint</title>
  <desc id="desc">Clean blueprint poster of a DNA double helix with technical insets and dimensions.</desc>

  <defs>
    <pattern id="grid-minor" width="24" height="24" patternUnits="userSpaceOnUse">
      <path d="M24 0H0V24" fill="none" stroke="#1d4a8c" stroke-width="1" vector-effect="non-scaling-stroke"/>
    </pattern>
    <pattern id="grid-major" width="120" height="120" patternUnits="userSpaceOnUse">
      <path d="M120 0H0V120" fill="none" stroke="#3b66a5" stroke-width="1.3" vector-effect="non-scaling-stroke"/>
    </pattern>
  </defs>

  <g id="background">
    <rect x="0" y="0" width="2000" height="2800" fill="#0b438f"/>
    <rect x="0" y="0" width="2000" height="2800" fill="url(#grid-minor)"/>
    <rect x="0" y="0" width="2000" height="2800" fill="url(#grid-major)"/>
    <rect x="28" y="28" width="1944" height="2744" fill="none" stroke="#ffffff" stroke-width="2.2" vector-effect="non-scaling-stroke"/>
  </g>

  <g id="title-block" fill="#ffffff" font-family="'JetBrains Mono', monospace" letter-spacing="1.4">
    <text x="68" y="130" font-size="96" font-weight="700">DNA</text>
    <text x="68" y="188" font-size="36">TECHNICAL BLUEPRINT</text>
    <line x1="68" y1="208" x2="460" y2="208" stroke="#ffffff" stroke-width="2.2"/>
  </g>

  <g id="helix" stroke="#ffffff" fill="none" stroke-linecap="round" stroke-linejoin="round" vector-effect="non-scaling-stroke">
    <g id="construction" stroke-width="2.1" stroke-dasharray="10 10" opacity="0.9">
      <line x1="800" y1="270" x2="800" y2="2500"/>
      <line x1="520" y1="300" x2="1080" y2="300"/>
      <line x1="520" y1="2500" x2="1080" y2="2500"/>
      <line x1="960" y1="1760" x2="1260" y2="1760"/>
      <line x1="960" y1="2060" x2="1260" y2="2060"/>
    </g>

    <g id="backbones" stroke-width="5.2">
      <path id="backbone-left" d="M620 300 C760 420 840 520 980 640 C840 760 760 860 620 980 C760 1100 840 1200 980 1320 C840 1440 760 1540 620 1660 C760 1780 840 1880 980 2000 C840 2120 760 2220 620 2340 C760 2460 840 2500 980 2500"/>
      <path id="backbone-right" d="M980 300 C840 420 760 520 620 640 C760 760 840 860 980 980 C840 1100 760 1200 620 1320 C760 1440 840 1540 980 1660 C840 1780 760 1880 620 2000 C760 2120 840 2220 980 2340 C840 2460 760 2500 620 2500"/>
      <circle cx="620" cy="300" r="16"/>
      <circle cx="980" cy="300" r="16"/>
      <circle cx="620" cy="2500" r="16"/>
      <circle cx="980" cy="2500" r="16"/>
    </g>

    <g id="base-pairs" stroke-width="3.6">
      <line x1="724" y1="376" x2="876" y2="376"/>
      <line x1="690" y1="444" x2="910" y2="444"/>
      <line x1="660" y1="512" x2="940" y2="512"/>
      <line x1="636" y1="580" x2="964" y2="580"/>
      <line x1="626" y1="648" x2="974" y2="648"/>
      <line x1="636" y1="716" x2="964" y2="716"/>
      <line x1="660" y1="784" x2="940" y2="784"/>
      <line x1="690" y1="852" x2="910" y2="852"/>
      <line x1="724" y1="920" x2="876" y2="920"/>

      <line x1="742" y1="1040" x2="858" y2="1040"/>
      <line x1="756" y1="1108" x2="844" y2="1108"/>
      <line x1="742" y1="1176" x2="858" y2="1176"/>

      <line x1="724" y1="1300" x2="876" y2="1300"/>
      <line x1="690" y1="1368" x2="910" y2="1368"/>
      <line x1="660" y1="1436" x2="940" y2="1436"/>
      <line x1="636" y1="1504" x2="964" y2="1504"/>
      <line x1="626" y1="1572" x2="974" y2="1572"/>
      <line x1="636" y1="1640" x2="964" y2="1640"/>
      <line x1="660" y1="1708" x2="940" y2="1708"/>
      <line x1="690" y1="1776" x2="910" y2="1776"/>
      <line x1="724" y1="1844" x2="876" y2="1844"/>

      <line x1="742" y1="1964" x2="858" y2="1964"/>
      <line x1="756" y1="2032" x2="844" y2="2032"/>
      <line x1="742" y1="2100" x2="858" y2="2100"/>

      <line x1="724" y1="2224" x2="876" y2="2224"/>
      <line x1="690" y1="2292" x2="910" y2="2292"/>
      <line x1="660" y1="2360" x2="940" y2="2360"/>
      <line x1="636" y1="2428" x2="964" y2="2428"/>
      <line x1="626" y1="2496" x2="974" y2="2496"/>
    </g>

    <g id="dimensions" stroke-width="3">
      <line x1="520" y1="220" x2="980" y2="220"/>
      <polyline points="520,220 544,208 544,232 520,220"/>
      <polyline points="980,220 956,208 956,232 980,220"/>
      <line x1="520" y1="202" x2="520" y2="238"/>
      <line x1="980" y1="202" x2="980" y2="238"/>

      <line x1="388" y1="300" x2="388" y2="2500"/>
      <polyline points="388,300 376,324 400,324 388,300"/>
      <polyline points="388,2500 376,2476 400,2476 388,2500"/>
      <line x1="370" y1="300" x2="406" y2="300"/>
      <line x1="370" y1="2500" x2="406" y2="2500"/>

      <line x1="1220" y1="1760" x2="1220" y2="2060"/>
      <polyline points="1220,1760 1208,1784 1232,1784 1220,1760"/>
      <polyline points="1220,2060 1208,2036 1232,2036 1220,2060"/>
      <line x1="1202" y1="1760" x2="1238" y2="1760"/>
      <line x1="1202" y1="2060" x2="1238" y2="2060"/>
    </g>
  </g>

  <g id="labels" fill="#ffffff" font-family="'JetBrains Mono', monospace" font-size="34" letter-spacing="1">
    <text x="694" y="200">2.0 nm</text>
    <text x="684" y="244">DIAMETER</text>

    <text x="300" y="1420">34.0 nm</text>
    <text x="286" y="1472">(10 TURNS)</text>

    <text x="1244" y="1888">3.4 nm</text>
    <text x="1244" y="1938">PITCH</text>
    <text x="1244" y="1988">(ONE TURN)</text>

    <line x1="1050" y1="650" x2="1174" y2="650" stroke="#ffffff" stroke-width="2.4"/>
    <text x="1192" y="658">SUGAR-PHOSPHATE</text>
    <text x="1192" y="706">BACKBONE</text>

    <line x1="1028" y1="1188" x2="1134" y2="1148" stroke="#ffffff" stroke-width="2.4"/>
    <text x="1192" y="1190">NITROGENOUS</text>
    <text x="1192" y="1238">BASE PAIR</text>
  </g>

  <g id="insets" stroke="#ffffff" fill="none" stroke-width="2.8" vector-effect="non-scaling-stroke" stroke-linecap="round" stroke-linejoin="round">
    <rect x="1340" y="170" width="560" height="560"/>
    <rect x="1340" y="760" width="560" height="560"/>
    <rect x="1340" y="1350" width="560" height="560"/>

    <g id="inset-side-view">
      <text x="1386" y="236" fill="#ffffff" font-family="'JetBrains Mono', monospace" font-size="32">SIDE VIEW</text>
      <path d="M1508 316 C1590 372 1646 430 1728 486 C1646 542 1590 600 1508 656"/>
      <path d="M1728 316 C1646 372 1590 430 1508 486 C1590 542 1646 600 1728 656"/>
      <line x1="1568" y1="356" x2="1668" y2="356"/>
      <line x1="1548" y1="408" x2="1688" y2="408"/>
      <line x1="1538" y1="460" x2="1698" y2="460"/>
      <line x1="1548" y1="512" x2="1688" y2="512"/>
      <line x1="1568" y1="564" x2="1668" y2="564"/>
      <line x1="1508" y1="682" x2="1728" y2="682"/>
      <polyline points="1508,682 1530,670 1530,694 1508,682"/>
      <polyline points="1728,682 1706,670 1706,694 1728,682"/>
      <text x="1590" y="724" fill="#ffffff" font-family="'JetBrains Mono', monospace" font-size="30">2.0 nm</text>
    </g>

    <g id="inset-basepairs">
      <text x="1386" y="820" fill="#ffffff" font-family="'JetBrains Mono', monospace" font-size="32">BASE PAIRS</text>
      <line x1="1468" y1="958" x2="1772" y2="958"/>
      <line x1="1468" y1="1064" x2="1772" y2="1064"/>
      <line x1="1468" y1="1170" x2="1772" y2="1170"/>
      <text x="1432" y="968" fill="#ffffff" font-family="'JetBrains Mono', monospace" font-size="34">A</text>
      <text x="1800" y="968" fill="#ffffff" font-family="'JetBrains Mono', monospace" font-size="34">T</text>
      <text x="1432" y="1074" fill="#ffffff" font-family="'JetBrains Mono', monospace" font-size="34">G</text>
      <text x="1800" y="1074" fill="#ffffff" font-family="'JetBrains Mono', monospace" font-size="34">C</text>
      <text x="1432" y="1180" fill="#ffffff" font-family="'JetBrains Mono', monospace" font-size="34">C</text>
      <text x="1800" y="1180" fill="#ffffff" font-family="'JetBrains Mono', monospace" font-size="34">G</text>
      <line x1="1610" y1="938" x2="1630" y2="938"/>
      <line x1="1610" y1="958" x2="1630" y2="958"/>
      <line x1="1610" y1="978" x2="1630" y2="978"/>
      <line x1="1610" y1="1064" x2="1630" y2="1064"/>
      <line x1="1610" y1="1084" x2="1630" y2="1084"/>
      <line x1="1610" y1="1150" x2="1630" y2="1150"/>
      <line x1="1610" y1="1170" x2="1630" y2="1170"/>
      <line x1="1610" y1="1190" x2="1630" y2="1190"/>
    </g>

    <g id="inset-nucleotide">
      <text x="1386" y="1808" fill="#ffffff" font-family="'JetBrains Mono', monospace" font-size="32">NUCLEOTIDE</text>
      <circle cx="1456" cy="1716" r="42"/>
      <polygon points="1582,1668 1650,1668 1686,1726 1650,1784 1582,1784 1546,1726"/>
      <polygon points="1768,1668 1836,1668 1872,1726 1836,1784 1768,1784 1732,1726"/>
      <line x1="1498" y1="1716" x2="1546" y2="1726"/>
      <line x1="1686" y1="1726" x2="1732" y2="1726"/>
      <text x="1439" y="1728" fill="#ffffff" font-family="'JetBrains Mono', monospace" font-size="34">P</text>
      <text x="1610" y="1739" fill="#ffffff" font-family="'JetBrains Mono', monospace" font-size="34">S</text>
      <text x="1796" y="1739" fill="#ffffff" font-family="'JetBrains Mono', monospace" font-size="34">B</text>
      <text x="1420" y="1860" fill="#ffffff" font-family="'JetBrains Mono', monospace" font-size="28">P  PHOSPHATE</text>
      <text x="1420" y="1902" fill="#ffffff" font-family="'JetBrains Mono', monospace" font-size="28">S  SUGAR</text>
      <text x="1420" y="1944" fill="#ffffff" font-family="'JetBrains Mono', monospace" font-size="28">B  BASE</text>
    </g>
  </g>

  <g id="specs" stroke="#ffffff" fill="none" stroke-width="2.6" vector-effect="non-scaling-stroke">
    <rect x="74" y="2320" width="730" height="390"/>
    <text x="122" y="2390" fill="#ffffff" font-family="'JetBrains Mono', monospace" font-size="34">SPECIFICATIONS</text>
    <text x="122" y="2460" fill="#ffffff" font-family="'JetBrains Mono', monospace" font-size="29">DIAMETER      : 2.0 nm</text>
    <text x="122" y="2508" fill="#ffffff" font-family="'JetBrains Mono', monospace" font-size="29">PITCH         : 3.4 nm</text>
    <text x="122" y="2556" fill="#ffffff" font-family="'JetBrains Mono', monospace" font-size="29">BASE PAIRS    : 10 / TURN</text>
    <text x="122" y="2604" fill="#ffffff" font-family="'JetBrains Mono', monospace" font-size="29">TOTAL LENGTH  : 34.0 nm</text>
    <text x="122" y="2652" fill="#ffffff" font-family="'JetBrains Mono', monospace" font-size="29">STRUCTURE     : DOUBLE HELIX</text>
    <text x="122" y="2700" fill="#ffffff" font-family="'JetBrains Mono', monospace" font-size="29">TYPE          : RIGHT-HANDED (B-DNA)</text>
  </g>
</svg>
