<svg width="64" height="64" viewBox="0 0 64 64" fill="none" xmlns="http://www.w3.org/2000/svg">
  <rect width="64" height="64" rx="18" fill="#07111F"/>
  <rect x="6" y="6" width="52" height="52" rx="14" fill="#0D2236"/>
  <path d="M21.5 17H29.5C36.2 17 39.5 20.9 39.5 26C39.5 30.1 37.2 33.4 32.8 34.5L45 47H35.5L25.5 36.7V47H19V17H21.5ZM28.3 30.5C31.7 30.5 33.3 28.8 33.3 26.2C33.3 23.6 31.6 22 28.3 22H25.5V30.5H28.3Z" fill="white"/>
  <path d="M41.5 17.5C45 17.5 48.1 18.8 50.5 21.2L47.3 24.6C45.7 23 43.9 22.2 41.7 22.2C37.1 22.2 34.1 25.8 34.1 31C34.1 36.3 37.2 39.8 41.8 39.8C44.3 39.8 46.2 38.9 47.8 37L51 40.3C48.3 43.5 44.9 45 40.9 45C33.2 45 27.9 39.4 27.9 31.1C27.9 22.9 33.3 17.5 41.5 17.5Z" fill="#79E1FF"/>
</svg>
