<svg width="256" height="256" viewBox="0 0 256 256" fill="none" xmlns="http://www.w3.org/2000/svg">
  <rect width="256" height="256" rx="64" fill="#07111F"/>
  <rect x="24" y="24" width="208" height="208" rx="52" fill="url(#bg)"/>
  <path d="M87 63C117 63 131 81 131 105C131 125 120 141 99 146L158 193H121L72 152V193H45V63H87ZM82 127C97 127 104 119 104 107C104 95 96 88 82 88H72V127H82Z" fill="white"/>
  <path d="M164 62C182 62 197 68 208 80L191 98C184 90 175 86 164 86C142 86 128 103 128 128C128 153 143 170 165 170C177 170 186 166 194 157L211 174C199 188 184 194 163 194C126 194 100 167 100 128C100 89 128 62 164 62Z" fill="#79E1FF"/>
  <circle cx="183" cy="54" r="10" fill="#39C6B4"/>
  <circle cx="203" cy="72" r="6" fill="#B8E36B"/>
  <defs>
    <linearGradient id="bg" x1="24" y1="24" x2="232" y2="232" gradientUnits="userSpaceOnUse">
      <stop stop-color="#0B1C31"/>
      <stop offset="1" stop-color="#0E2A40"/>
    </linearGradient>
  </defs>
</svg>
